<svg width="1000" height="1000" viewBox="0 0 1000 1000" fill="none" xmlns="http://www.w3.org/2000/svg">
<path d="M1000 498.971C1000 774.545 776.142 997.942 500 997.942C223.858 997.942 0 774.545 0 498.971C0 223.397 223.858 0 500 0C776.142 0 1000 223.397 1000 498.971Z" fill="url(#paint0_linear_4_81)"/>
<path d="M124.663 789.949L121.485 785.846L150.489 763.471L142.615 753.307L146.224 750.523L165.114 774.909L161.506 777.693L153.667 767.574L124.663 789.949Z" fill="#FEFEFF"/>
<path d="M167.062 791.728C168.821 793.716 169.892 795.794 170.275 797.969C170.684 800.171 170.426 802.346 169.502 804.492C168.633 806.642 167.145 808.646 165.04 810.502L162.747 812.525L148.718 796.679C146.145 799.049 144.726 801.479 144.463 803.967C144.254 806.457 145.169 808.854 147.207 811.156C148.507 812.626 149.784 813.807 151.037 814.7C152.345 815.597 153.793 816.42 155.383 817.171L152.051 820.109C150.487 819.387 149.08 818.551 147.83 817.603C146.552 816.681 145.211 815.428 143.81 813.846C141.873 811.656 140.6 809.321 139.991 806.833C139.407 804.377 139.574 801.897 140.493 799.395C141.465 796.897 143.235 794.516 145.802 792.253C148.341 790.016 150.888 788.512 153.444 787.745C156.026 787.006 158.482 786.969 160.813 787.63C163.17 788.319 165.253 789.685 167.062 791.728ZM163.909 794.432C162.304 792.619 160.438 791.702 158.313 791.679C156.242 791.661 154.079 792.465 151.824 794.095L162.259 805.883C163.586 804.712 164.561 803.494 165.185 802.226C165.809 800.959 166.025 799.665 165.834 798.348C165.698 797.033 165.056 795.728 163.909 794.432Z" fill="#FEFEFF"/>
<path d="M173.928 821.992L177.005 803.77L181.102 807.829L178.54 821.689L192.369 818.992L196.425 823.01L178.189 826.214L175.034 845.331L170.937 841.272L173.659 826.597L158.891 829.337L154.835 825.321L173.928 821.992Z" fill="#FEFEFF"/>
<path d="M201.193 827.27L192.739 836.959L205.41 847.967L213.864 838.278L217.695 841.607L197.376 864.897L193.545 861.568L202.605 851.183L189.934 840.175L180.874 850.56L177.042 847.23L197.361 823.94L201.193 827.27Z" fill="#FEFEFF"/>
<path d="M235.373 874.426C233.827 876.484 232.175 878.105 230.421 879.288C228.72 880.463 226.944 881.224 225.097 881.57C223.28 881.938 221.429 881.872 219.544 881.374C217.711 880.866 215.918 879.957 214.163 878.642C212.532 877.422 211.231 876.016 210.26 874.426C209.313 872.805 208.748 871.062 208.563 869.193C208.377 867.327 208.581 865.391 209.175 863.387C209.821 861.374 210.918 859.337 212.466 857.28C214.522 854.545 216.715 852.586 219.047 851.403C221.402 850.189 223.812 849.737 226.274 850.043C228.761 850.319 231.19 851.346 233.561 853.119C235.808 854.803 237.398 856.784 238.33 859.066C239.315 861.34 239.569 863.786 239.091 866.405C238.668 869.016 237.429 871.691 235.373 874.426ZM216.668 860.426C215.214 862.362 214.19 864.235 213.598 866.049C213.058 867.854 213.039 869.543 213.54 871.119C214.039 872.693 215.122 874.103 216.784 875.348C218.447 876.593 220.105 877.233 221.761 877.272C223.416 877.311 225.021 876.807 226.575 875.761C228.184 874.71 229.715 873.216 231.171 871.28C232.649 869.313 233.645 867.442 234.161 865.669C234.676 863.893 234.672 862.235 234.151 860.689C233.68 859.138 232.598 857.728 230.905 856.461C228.379 854.572 225.926 854.031 223.538 854.837C221.153 855.644 218.862 857.506 216.668 860.426Z" fill="#FEFEFF"/>
<path d="M250.771 903.014L246.456 900.228L260.969 877.829L253.309 872.887C250.332 876.774 247.662 880.012 245.295 882.603C242.951 885.161 240.821 887.103 238.907 888.43C236.994 889.755 235.247 890.504 233.67 890.675C232.093 890.848 230.61 890.483 229.221 889.586C228.8 889.317 228.4 889.012 228.023 888.677C227.656 888.395 227.384 888.105 227.208 887.811L229.278 884.617C229.431 884.807 229.608 884.99 229.814 885.169C230.021 885.346 230.235 885.508 230.462 885.654C231.173 886.113 232.008 886.241 232.965 886.035C233.924 885.829 235.014 885.278 236.241 884.374C237.499 883.496 238.907 882.276 240.466 880.72C242.043 879.132 243.784 877.191 245.685 874.895C247.584 872.599 249.66 869.961 251.913 866.977L267.573 877.082L250.771 903.014Z" fill="#FEFEFF"/>
<path d="M286.035 887.084C289.338 888.903 291.381 890.971 292.165 893.29C292.951 895.607 292.468 898.348 290.722 901.508L280.542 919.922L277.307 918.14L278.567 913.833L278.365 913.722C277.052 914.272 275.788 914.65 274.573 914.858C273.41 915.051 272.206 915.004 270.961 914.712C269.748 914.44 268.386 913.887 266.868 913.051C265.252 912.161 263.942 911.068 262.944 909.774C261.979 908.496 261.452 907.066 261.361 905.479C261.289 903.862 261.755 902.144 262.759 900.327C264.245 897.638 266.452 896.152 269.373 895.877C272.315 895.566 276.029 896.558 280.52 898.854L285.202 901.235L286.095 899.619C287.34 897.366 287.715 895.533 287.223 894.121C286.728 892.708 285.588 891.51 283.802 890.527C282.388 889.749 280.918 889.224 279.396 888.957C277.893 888.656 276.435 888.469 275.025 888.393L275.501 884.313C277.033 884.323 278.73 884.556 280.59 885.008C282.468 885.428 284.282 886.121 286.035 887.084ZM279.373 902.237C275.93 900.516 273.291 899.765 271.456 899.984C269.654 900.22 268.278 901.195 267.332 902.912C266.495 904.424 266.336 905.784 266.856 906.992C267.408 908.216 268.41 909.228 269.86 910.027C272.151 911.288 274.398 911.714 276.602 911.305C278.827 910.862 280.662 909.329 282.113 906.706L283.452 904.284L279.373 902.237Z" fill="#FEFEFF"/>
<path d="M319.12 912.763C318.305 914.504 317.146 915.617 315.643 916.103C314.142 916.588 312.489 916.623 310.687 916.206L310.59 916.416C312.219 917.473 313.441 918.807 314.26 920.418C315.093 921.994 315.021 923.825 314.041 925.914C313.489 927.097 312.748 928.086 311.821 928.885C310.93 929.698 309.86 930.257 308.612 930.566C307.363 930.875 305.926 930.903 304.301 930.652C302.693 930.368 300.876 929.755 298.854 928.811L286.773 923.173L299.882 895.2L311.909 900.813C313.897 901.741 315.569 902.796 316.926 903.981C318.334 905.146 319.247 906.463 319.664 907.93C320.134 909.379 319.953 910.99 319.12 912.763ZM309.282 923.691C310.033 922.093 309.961 920.658 309.066 919.393C308.173 918.128 306.54 916.942 304.169 915.835L297.318 912.64L293.111 921.615L300.068 924.862C302.369 925.936 304.285 926.426 305.814 926.335C307.361 926.208 308.518 925.327 309.282 923.691ZM314.196 911.167C314.816 909.844 314.777 908.66 314.078 907.613C313.429 906.547 312.025 905.51 309.864 904.502L302.699 901.158L299.103 908.829L305.431 911.782C307.697 912.84 309.571 913.331 311.049 913.259C312.528 913.185 313.577 912.488 314.196 911.167Z" fill="#FEFEFF"/>
<path d="M346.103 915.132L351.27 917.134L333.557 926.218L341.097 946.319L335.606 944.191L328.264 924.539L322.581 939.148L317.845 937.313L329.041 908.525L333.777 910.358L328.346 924.323L346.103 915.132Z" fill="#FEFEFF"/>
<path d="M365.509 921.167C369.105 922.302 371.515 923.93 372.742 926.049C373.967 928.167 374.035 930.949 372.944 934.391L366.592 954.44L363.068 953.329L363.456 948.858L363.235 948.79C362.056 949.584 360.891 950.204 359.74 950.648C358.639 951.066 357.449 951.253 356.171 951.212C354.928 951.183 353.482 950.907 351.831 950.387C350.068 949.831 348.571 949.017 347.338 947.942C346.14 946.879 345.34 945.58 344.94 944.043C344.551 942.469 344.668 940.696 345.295 938.718C346.223 935.788 348.093 933.899 350.903 933.056C353.726 932.173 357.565 932.418 362.419 933.788L367.48 935.204L368.037 933.446C368.814 930.992 368.821 929.121 368.06 927.833C367.297 926.545 365.942 925.595 363.998 924.981C362.456 924.494 360.913 924.27 359.367 924.305C357.835 924.305 356.369 924.407 354.973 924.611L354.635 920.516C356.14 920.224 357.849 920.119 359.761 920.2C361.685 920.243 363.6 920.566 365.509 921.167ZM361.963 937.329C358.245 936.319 355.509 936.099 353.755 936.673C352.035 937.259 350.878 938.486 350.287 940.352C349.765 942 349.876 943.366 350.625 944.447C351.408 945.541 352.59 946.335 354.167 946.833C356.662 947.621 358.951 947.599 361.031 946.765C363.124 945.895 364.623 944.031 365.528 941.175L366.363 938.537L361.963 937.329Z" fill="#FEFEFF"/>
<path d="M387.715 960.163L396.21 919.909L420.163 924.944L419.223 929.397L400.355 925.432L397.701 938.004L403.691 939.261C407.72 940.109 410.738 941.274 412.746 942.755C414.763 944.2 416.021 945.877 416.522 947.788C417.031 949.66 417.052 951.706 416.583 953.924C416.068 956.366 415.134 958.368 413.783 959.93C412.468 961.498 410.639 962.527 408.293 963.014C405.948 963.504 403.025 963.381 399.522 962.644L387.715 960.163ZM399.93 958.195C403.546 958.955 406.214 958.889 407.938 957.994C409.668 957.064 410.798 955.337 411.33 952.819C411.695 951.091 411.627 949.644 411.126 948.479C410.67 947.284 409.699 946.294 408.212 945.512C406.763 944.737 404.738 944.074 402.14 943.529L396.773 942.401L393.715 956.889L399.93 958.195Z" fill="#FEFEFF"/>
<path d="M450.701 955.344C450.355 957.893 449.703 960.111 448.748 961.998C447.837 963.85 446.658 965.377 445.212 966.576C443.806 967.782 442.157 968.625 440.266 969.105C438.419 969.553 436.408 969.63 434.235 969.335C432.212 969.062 430.392 968.465 428.767 967.549C427.151 966.593 425.804 965.346 424.732 963.805C423.66 962.263 422.893 960.473 422.433 958.434C422.014 956.362 421.979 954.051 422.326 951.502C422.788 948.115 423.746 945.337 425.206 943.171C426.672 940.965 428.555 939.399 430.856 938.469C433.163 937.504 435.783 937.218 438.722 937.615C441.505 937.994 443.86 938.951 445.788 940.492C447.759 941.998 449.173 944.012 450.035 946.531C450.94 949.019 451.163 951.955 450.701 955.344ZM427.532 952.206C427.206 954.605 427.227 956.739 427.594 958.611C428.004 960.449 428.812 961.934 430.019 963.066C431.223 964.2 432.856 964.903 434.915 965.183C436.975 965.461 438.736 965.216 440.2 964.444C441.666 963.675 442.821 962.455 443.67 960.786C444.561 959.086 445.169 957.037 445.495 954.638C445.827 952.202 445.786 950.084 445.369 948.284C444.955 946.484 444.14 945.035 442.93 943.942C441.763 942.815 440.13 942.109 438.033 941.825C434.905 941.401 432.497 942.121 430.806 943.986C429.115 945.85 428.025 948.591 427.532 952.206Z" fill="#FEFEFF"/>
<path d="M476.212 941.846L475.899 946.097L462.138 945.088L460.186 971.636L455.12 971.263L457.386 940.465L476.212 941.846Z" fill="#FEFEFF"/>
<path d="M504.342 942.453L504.033 969.068L508.536 969.119L508.363 984.099L503.456 984.041L503.579 973.327L482.047 973.078L481.924 983.792L477.074 983.737L477.247 968.759L479.73 968.788C481.528 966.35 483.023 963.698 484.21 960.829C485.437 957.926 486.357 954.901 486.971 951.759C487.625 948.578 487.988 945.414 488.062 942.263L504.342 942.453ZM492.52 946.292C492.336 948.901 491.899 951.605 491.212 954.401C490.526 957.158 489.649 959.798 488.581 962.321C487.551 964.844 486.351 967.021 484.983 968.848L499.126 969.01L499.39 946.37L492.52 946.292Z" fill="#FEFEFF"/>
<path d="M524.825 941.177C528.59 940.959 531.425 941.621 533.326 943.167C535.227 944.712 536.282 947.286 536.493 950.891L537.711 971.883L534.023 972.097L532.79 967.782L532.559 967.796C531.738 968.959 530.872 969.951 529.955 970.774C529.076 971.556 528.031 972.154 526.821 972.57C525.649 972.986 524.2 973.243 522.472 973.342C520.627 973.449 518.936 973.22 517.4 972.654C515.903 972.086 514.691 971.156 513.769 969.862C512.843 968.531 512.32 966.831 512.2 964.759C512.023 961.691 513.095 959.263 515.421 957.475C517.742 955.648 521.416 954.512 526.441 954.068L531.676 953.593L531.569 951.751C531.421 949.183 530.759 947.432 529.588 946.5C528.414 945.566 526.81 945.158 524.773 945.278C523.161 945.37 521.637 945.708 520.206 946.292C518.773 946.835 517.441 947.453 516.208 948.138L514.431 944.432C515.734 943.625 517.293 942.92 519.109 942.315C520.922 941.673 522.827 941.292 524.825 941.177ZM527.278 957.539C523.445 957.916 520.81 958.683 519.375 959.844C517.977 961.002 517.334 962.558 517.447 964.514C517.548 966.239 518.14 967.475 519.225 968.22C520.346 968.963 521.734 969.288 523.388 969.191C526 969.041 528.13 968.206 529.775 966.687C531.421 965.13 532.157 962.856 531.981 959.864L531.823 957.105L527.278 957.539Z" fill="#FEFEFF"/>
<path d="M546.831 940.062L548.462 952.807L565.128 950.681L563.495 937.936L568.534 937.294L572.458 967.924L567.419 968.568L565.668 954.909L549.004 957.035L550.755 970.693L545.715 971.337L541.79 940.706L546.831 940.062Z" fill="#FEFEFF"/>
<path d="M588.386 933.08C592.08 932.333 594.981 932.589 597.082 933.85C599.183 935.109 600.594 937.508 601.311 941.047L605.497 961.656L601.876 962.389L600.043 958.292L599.817 958.337C599.171 959.605 598.452 960.71 597.662 961.654C596.903 962.554 595.953 963.294 594.814 963.877C593.713 964.451 592.315 964.912 590.619 965.253C588.806 965.619 587.101 965.632 585.501 965.29C583.936 964.94 582.606 964.189 581.509 963.039C580.404 961.852 579.645 960.243 579.233 958.21C578.621 955.198 579.338 952.642 581.388 950.543C583.427 948.407 586.903 946.763 591.812 945.613L596.928 944.403L596.561 942.597C596.049 940.074 595.146 938.434 593.854 937.677C592.561 936.92 590.915 936.743 588.915 937.146C587.332 937.467 585.872 938.016 584.538 938.796C583.196 939.537 581.965 940.335 580.841 941.189L578.557 937.772C579.732 936.79 581.175 935.87 582.887 935.014C584.59 934.121 586.423 933.477 588.386 933.08ZM593.134 948.932C589.394 949.846 586.895 950.977 585.637 952.329C584.419 953.673 584.002 955.305 584.392 957.224C584.736 958.92 585.499 960.058 586.676 960.642C587.895 961.22 589.313 961.344 590.936 961.016C593.501 960.498 595.491 959.37 596.905 957.634C598.311 955.86 598.718 953.506 598.122 950.57L597.571 947.858L593.134 948.932Z" fill="#FEFEFF"/>
<path d="M864.045 752.969C866.291 749.941 868.617 748.19 871.023 747.721C873.427 747.251 876.08 748.09 878.981 750.24L895.882 762.755L893.681 765.722L889.578 763.904L889.44 764.09C889.808 765.463 890.013 766.766 890.058 767.996C890.096 769.172 889.885 770.359 889.429 771.553C888.995 772.716 888.264 773.994 887.232 775.384C886.13 776.868 884.871 778.019 883.454 778.835C882.057 779.623 880.566 779.954 878.981 779.833C877.365 779.691 875.725 779.003 874.058 777.768C871.587 775.939 870.41 773.56 870.529 770.629C870.615 767.677 872.099 764.129 874.977 759.989L877.969 755.667L876.488 754.57C874.42 753.038 872.651 752.423 871.184 752.726C869.717 753.028 868.375 753.998 867.159 755.636C866.197 756.934 865.48 758.319 865.01 759.791C864.508 761.24 864.128 762.656 863.864 764.043L859.879 763.032C860.096 761.516 860.553 759.867 861.252 758.086C861.92 756.282 862.852 754.577 864.045 752.969ZM878.18 761.571C876.012 764.753 874.912 767.266 874.882 769.112C874.876 770.926 875.658 772.418 877.232 773.584C878.622 774.613 879.951 774.948 881.217 774.595C882.509 774.209 883.646 773.352 884.633 772.023C886.192 769.921 886.916 767.752 886.805 765.515C886.664 763.256 885.39 761.235 882.983 759.451L880.759 757.804L878.18 761.571Z" fill="#FEFEFF"/>
<path d="M642.497 951.597L618.435 921.471L618.216 921.543C618.526 922.251 618.885 923.165 619.289 924.284C619.732 925.393 620.19 926.617 620.666 927.957C621.13 929.261 621.588 930.607 622.039 931.996L629.757 955.722L625.198 957.2L612.474 918.072L619.777 915.708L642.285 943.852L642.503 943.782L644.377 907.739L651.627 905.391L664.351 944.519L659.464 946.101L651.641 922.045C651.225 920.765 650.833 919.5 650.466 918.245C650.087 916.955 649.755 915.751 649.472 914.63C649.177 913.473 648.924 912.506 648.709 911.728L648.491 911.798L646.559 950.282L642.497 951.597Z" fill="#FEFEFF"/>
<path d="M674.171 906.459C677.639 904.979 680.53 904.646 682.843 905.455C685.157 906.263 687.025 908.329 688.447 911.648L696.728 930.986L693.33 932.434L690.703 928.792L690.491 928.883C690.115 930.255 689.637 931.481 689.056 932.566C688.493 933.599 687.713 934.516 686.718 935.317C685.757 936.103 684.478 936.835 682.887 937.514C681.188 938.239 679.52 938.597 677.882 938.584C676.28 938.558 674.825 938.093 673.518 937.187C672.194 936.249 671.124 934.825 670.307 932.918C669.097 930.093 669.282 927.444 670.862 924.975C672.425 922.471 675.495 920.158 680.072 918.039L684.835 915.821L684.107 914.126C683.095 911.759 681.878 910.335 680.458 909.856C679.039 909.375 677.392 909.535 675.515 910.333C674.029 910.967 672.711 911.8 671.563 912.833C670.4 913.831 669.355 914.862 668.429 915.926L665.499 913.039C666.449 911.84 667.676 910.648 669.179 909.465C670.666 908.247 672.33 907.245 674.171 906.459ZM682.039 921.023C678.561 922.673 676.342 924.288 675.386 925.864C674.464 927.428 674.39 929.109 675.161 930.912C675.841 932.5 676.819 933.461 678.093 933.796C679.4 934.115 680.816 933.951 682.338 933.3C684.744 932.274 686.464 930.767 687.497 928.782C688.515 926.761 688.433 924.372 687.254 921.617L686.165 919.074L682.039 921.023Z" fill="#FEFEFF"/>
<path d="M706.109 891.957L711.058 889.467L705.961 908.679L725.971 916.547L720.713 919.193L701.167 911.479L708.239 925.471L703.703 927.755L689.767 900.181L694.305 897.899L701.064 911.274L706.109 891.957Z" fill="#FEFEFF"/>
<path d="M740.28 908.938C737.918 910.307 735.524 911.051 733.101 911.167C730.709 911.265 728.392 910.611 726.146 909.202C723.936 907.774 721.913 905.482 720.076 902.327C718.163 899.039 717.155 896.047 717.056 893.352C716.955 890.654 717.557 888.286 718.86 886.243C720.196 884.179 722.062 882.453 724.458 881.064C725.823 880.274 727.225 879.66 728.664 879.226C730.082 878.759 731.307 878.494 732.338 878.43L733.107 882.848C732.134 883.01 731.039 883.27 729.819 883.621C728.598 883.973 727.524 884.418 726.592 884.959C724.794 886 723.536 887.241 722.814 888.679C722.095 890.119 721.887 891.749 722.192 893.572C722.495 895.395 723.295 897.418 724.59 899.644C725.827 901.77 727.163 903.416 728.6 904.582C730.035 905.749 731.54 906.387 733.118 906.494C734.693 906.603 736.33 906.165 738.027 905.181C739.493 904.331 740.687 903.438 741.61 902.504C742.567 901.549 743.388 900.584 744.068 899.613L746.33 903.5C745.701 904.486 744.905 905.414 743.942 906.282C743.033 907.165 741.812 908.049 740.28 908.938Z" fill="#FEFEFF"/>
<path d="M750.169 888.187C750.363 888.475 750.625 888.899 750.959 889.463C751.303 889.973 751.662 890.541 752.039 891.169C752.394 891.763 752.738 892.342 753.072 892.905C753.383 893.436 753.631 893.872 753.814 894.212L753.089 863.519L758.262 860.045L775.536 885.667L771.61 888.302L761.425 873.2C761.08 872.689 760.629 872.021 760.07 871.191C759.544 870.342 759.029 869.508 758.522 868.689C757.996 867.84 757.608 867.198 757.361 866.761L758.151 897.342L752.93 900.848L735.654 875.228L739.629 872.558L750.169 888.187Z" fill="#FEFEFF"/>
<path d="M788.882 836.235L808.163 860.387L804.596 863.224L792.295 847.813C791.792 847.181 791.278 846.508 790.757 845.794C790.266 845.053 789.786 844.331 789.32 843.621L789.183 843.73L796.786 869.434L793.443 872.09L770.264 858.77L770.128 858.879C770.715 859.492 771.285 860.144 771.837 860.833C772.419 861.502 772.996 862.195 773.573 862.916L785.767 878.193L782.2 881.029L762.92 856.874L768.202 852.675L791.336 866.031L783.6 840.434L788.882 836.235Z" fill="#FEFEFF"/>
<path d="M801.977 823.438C803.922 821.634 805.979 820.512 808.146 820.076C810.342 819.611 812.526 819.813 814.701 820.681C816.876 821.494 818.922 822.926 820.835 824.979L822.917 827.216L807.402 841.613C809.843 844.121 812.313 845.473 814.812 845.673C817.311 845.819 819.689 844.846 821.944 842.753C823.381 841.418 824.532 840.115 825.396 838.842C826.26 837.514 827.049 836.047 827.761 834.444L830.788 837.691C830.105 839.272 829.303 840.696 828.386 841.967C827.495 843.265 826.274 844.636 824.724 846.074C822.581 848.062 820.272 849.391 817.798 850.062C815.35 850.708 812.862 850.603 810.332 849.751C807.806 848.844 805.375 847.138 803.043 844.636C800.738 842.161 799.167 839.656 798.334 837.126C797.528 834.57 797.427 832.119 798.029 829.778C798.66 827.409 799.977 825.296 801.977 823.438ZM804.765 826.516C802.99 828.165 802.117 830.047 802.15 832.169C802.183 834.237 803.045 836.372 804.734 838.582L816.276 827.87C815.072 826.578 813.825 825.636 812.54 825.045C811.254 824.455 809.955 824.272 808.639 824.496C807.326 824.667 806.035 825.34 804.765 826.516Z" fill="#FEFEFF"/>
<path d="M818.023 808.755L827.421 817.537L838.905 805.3L829.507 796.519L832.981 792.819L855.565 813.928L852.093 817.628L842.023 808.216L830.538 820.453L840.608 829.864L837.136 833.566L814.551 812.455L818.023 808.755Z" fill="#FEFEFF"/>
<path d="M849.46 772.94L852.959 768.652L856.159 788.27L877.643 787.307L873.924 791.862L852.926 792.776L865.101 802.673L861.893 806.603L837.901 787.099L841.109 783.169L852.746 792.63L849.46 772.94Z" fill="#FEFEFF"/>
<path d="M86.7431 744.856C43.4435 672.658 18.5567 588.202 18.5567 497.942C18.5567 232.027 234.567 16.4609 501.031 16.4609C767.495 16.4609 983.505 232.027 983.505 497.942C983.505 582.685 961.567 662.313 923.051 731.481" stroke="white" stroke-width="2"/>
<path d="M634.093 657.346C620.311 644.311 624.245 604.3 627.969 542.179V537.037H617.763L401.394 696.42C397.73 728.685 396.864 737.562 399.353 746.807C414.81 781.444 409.59 797.973 453.445 823.928C478.967 832.22 568.485 864.7 645.32 762.23C650.635 743.747 654.342 736.401 653.485 692.307C653.66 678.397 653.447 670.609 634.093 657.346Z" fill="#F4C6A2"/>
<g style="mix-blend-mode:darken">
<g style="mix-blend-mode:darken">
<path d="M484.536 755.144C549.444 755.144 602.062 688.816 602.062 606.996C602.062 525.176 549.444 458.848 484.536 458.848C419.628 458.848 367.01 525.176 367.01 606.996C367.01 688.816 419.628 755.144 484.536 755.144Z" fill="#CF9F86" fill-opacity="0.46"/>
</g>
</g>
<path d="M557.732 369.074C486.703 320.675 347.307 318.031 335.052 369.074C322.796 420.119 322.151 412.936 321.65 456.523C322.831 461.856 324.153 465.331 329.897 474.012C331.06 476.728 331.734 479.471 332.99 487.387L328.866 514.136C325.53 554.165 328.798 578.71 346.392 627.305C354.724 639.788 359.379 647.06 367.01 671.543C369.043 687.253 367.827 686.49 380.412 706.79C410.309 711.934 428.72 717.432 465.979 713.992C484.359 711.535 493.876 710.778 512.371 698.56C540.437 682.146 548.454 668.724 572.165 646.091C595.876 623.457 611.258 610.961 618.557 557.346C634.847 484.646 640.583 453.107 648.454 417.428C621.375 393.305 602.398 382.16 557.732 369.074Z" fill="#FFD0B3"/>
<path d="M432.99 621.399C447.052 617.823 454.445 614.274 467.01 605.967C458.394 606.13 453.056 606.006 446.392 606.996C433.693 608.807 426.753 609.745 417.526 610.082C411.744 609.918 408.792 609.482 406.186 610.082C403.579 610.685 394.254 610.504 393.814 610.082C383.767 608.195 379.406 608.002 372.165 608.025C373.738 610.858 374.377 611.58 377.32 619.342C378.006 622.239 380.666 623.821 386.598 626.543C393.052 627.574 395.973 628.335 409.278 627.572C414.002 627.216 414.759 627.877 432.99 621.399Z" fill="#AC7766"/>
<path d="M379.381 442.862C364.748 429.056 353.691 422.039 316.311 419.753C315.986 432.389 311.165 442.364 328.701 443.868C340.74 444.753 350.431 444.765 379.381 442.862Z" fill="#201209"/>
<g style="mix-blend-mode:darken">
<g style="mix-blend-mode:darken">
<path d="M383.505 446.977C368.872 433.171 357.814 426.154 320.435 423.868C320.109 436.504 315.289 446.479 332.825 447.984C344.864 448.868 354.555 448.881 383.505 446.977Z" fill="#AE7E6E" fill-opacity="0.48"/>
</g>
</g>
<path d="M430.806 441.329C427.181 438.167 426.019 436.337 424.742 433.023L514.689 432.099C528.46 436.21 531.849 438.014 522.773 439.484C479.256 440.984 433.755 443.984 430.806 441.329Z" fill="#C6967D" fill-opacity="0.84"/>
<path d="M435.208 419.34C481.928 408.342 504.299 411.576 534.021 442.387C517.072 435.27 481.202 436.652 422.726 437.996C417.742 425.893 421.48 422.298 435.208 419.34Z" fill="#201209"/>
<path d="M435.208 419.34C481.928 408.342 504.299 411.576 534.021 442.387C517.072 435.27 481.202 436.652 422.726 437.996C417.742 425.893 421.48 422.298 435.208 419.34Z" fill="#201209"/>
<path d="M349.485 579.218C340.596 599.615 342.146 607.523 370.103 608.025C363.163 596.51 362.837 591.842 374.227 589.506C382.435 586.564 386.685 586.776 393.814 589.506C399.596 591.191 402.511 591.292 407.217 589.506C416.439 585.704 421.641 586.335 430.928 588.477C446.357 589.648 463.911 596.218 498.969 606.996C498.742 603.307 497.165 600.926 489.691 595.679C417.26 554.535 411.115 556.829 405.155 562.757C397.621 574.535 392.699 572.512 383.505 563.786C371.212 549.181 363.503 557.979 349.485 579.218Z" fill="#352017"/>
<path d="M588.66 397.726C578.107 378.566 560.056 367.214 526.804 346.916V339.506L571.134 346.916L641.237 397.726C627.864 417.549 619.748 427.531 613.402 460.181C609.074 490.525 606.371 506.835 607.216 550.159C609.276 572.91 608.775 586.864 597.938 618.965C592.285 630.068 586.689 636.889 574.227 649.663C505.876 720.37 465.474 733.926 380.412 707.885C370.293 700.319 365.082 686.072 363.918 663.58C357.847 650.294 348.039 635.259 343.299 618.313L355.67 632.726C358.806 638.537 360.924 642.198 372.165 657.074C380.458 664.395 383.078 668.636 420.619 674.01C451.957 677.656 470.744 675.247 505.155 667.658C532.328 659.743 545.39 651.403 561.856 624.257C579.21 575.992 591.804 554.463 597.938 484.529C599.802 433.981 599.144 410.815 588.66 397.726Z" fill="#352017"/>
<path d="M354.53 210.988C333.971 229.158 328.668 249.514 330.122 303.663C454.53 298.603 525.466 308.298 661.666 427.984C664.097 287.749 643.361 194.035 582.34 178.212C495.781 162.398 445.691 153.794 411.482 166.91C390.986 179.688 378.761 188.72 354.53 210.988Z" fill="#171411"/>
<path d="M241.076 306.438C183.892 322.156 194.892 341.99 326.278 405.971C339.153 362.786 340.581 335.165 454.08 351.228C523.103 368.362 570.505 360.045 649.421 432.099L657.732 423.389C605.641 368.667 576.975 337.208 503.955 312.661C397.897 284.294 341.07 288.51 241.076 306.438Z" fill="#0E0D0B"/>
<path d="M692.784 429.012C675 397.436 662.52 400.613 638.144 423.868L618.557 549.383L626.804 540.123C644.905 546.866 658.171 531.377 681.443 506.173C701.806 468.496 701.864 452.749 692.784 429.012Z" fill="#FFD0B3"/>
<path d="M510.309 461.527C476.122 448.609 459.324 445.409 445.361 467.004C450.718 466.409 454.043 466.506 461.856 469.195C479.449 473.512 489.936 472.5 510.309 461.527Z" fill="white" fill-opacity="0.42"/>
<path d="M510.309 461.527C476.122 448.609 459.324 445.409 445.361 467.004C450.718 466.409 454.043 466.506 461.856 469.195C479.449 473.512 489.936 472.5 510.309 461.527Z" fill="#E1D6D6" fill-opacity="0.2"/>
<path d="M335.052 464.813C337.113 450.572 366.165 455.8 378.351 467.004L349.485 474.673C349.485 474.673 332.99 479.056 335.052 464.813Z" fill="white" fill-opacity="0.42"/>
<path d="M335.052 464.813C337.113 450.572 366.165 455.8 378.351 467.004L349.485 474.673C349.485 474.673 332.99 479.056 335.052 464.813Z" fill="#E1D6D6" fill-opacity="0.2"/>
<path d="M474.227 471.193C481.059 471.193 486.598 466.587 486.598 460.905C486.598 455.223 481.059 450.617 474.227 450.617C467.394 450.617 461.856 455.223 461.856 460.905C461.856 466.587 467.394 471.193 474.227 471.193Z" fill="#4E3623"/>
<path d="M352.577 475.309C358.271 475.309 362.887 471.163 362.887 466.049C362.887 460.936 358.271 456.79 352.577 456.79C346.884 456.79 342.268 460.936 342.268 466.049C342.268 471.163 346.884 475.309 352.577 475.309Z" fill="#4E3623"/>
<path d="M671.134 492.798C672.534 521.942 645.499 531.35 618.557 550.411L639.175 422.839C663.371 419.591 671.435 425.963 671.134 449.588C668.959 467.64 669.955 476.562 671.134 492.798Z" fill="#E2B496"/>
<path d="M399.148 545.033C405.225 541.514 409.4 540.796 422.501 548.722L429.002 550.856C426.21 551.5 423.637 552.807 418.48 552.508C411.357 551.432 407.361 550.85 400.303 548.531C397.932 547.311 398 546.521 399.148 545.033Z" fill="#4E342A"/>
<path d="M378.351 466.049C351.175 454.189 342.041 455.21 332.99 467.078C341.148 450.988 349.895 449.346 378.351 466.049Z" fill="#DAC4B3"/>
<path d="M511.34 461.934C457.967 442.333 457.142 456.525 445.988 465.558C450.979 466.492 459.691 468.228 474.227 471.193C493.981 470.833 498.2 467.027 509.278 461.934C484.691 476.636 471.322 474.817 445.361 467.078C446.258 466.385 432.608 463.062 445.746 465.512C458.771 447.317 466.311 438.107 511.34 461.934Z" fill="#DAC4B3"/>
<path d="M380.412 466.049C355.198 473.759 343.225 476.362 332.99 471.193C344.322 479.887 356.181 476.22 380.412 466.049Z" fill="#DAC4B3"/>
<path d="M513.402 462.963C465.342 440.187 459.416 450.924 444.33 465.021C459.909 448.294 465.359 434.323 513.402 462.963Z" fill="#C99A7F" fill-opacity="0.9"/>
<path d="M472.165 462.963C474.442 462.963 476.289 461.581 476.289 459.877C476.289 458.172 474.442 456.79 472.165 456.79C469.887 456.79 468.041 458.172 468.041 459.877C468.041 461.581 469.887 462.963 472.165 462.963Z" fill="#25180B"/>
<path d="M349.485 469.136C351.193 469.136 352.577 467.754 352.577 466.049C352.577 464.345 351.193 462.963 349.485 462.963C347.776 462.963 346.392 464.345 346.392 466.049C346.392 467.754 347.776 469.136 349.485 469.136Z" fill="#25180B"/>
<path d="M425.773 637.86C420.631 633.436 412.454 632.002 391.753 630.658C382.076 629.535 386.546 632.907 388.355 647.539L388.66 659.465C389.161 661.667 388.557 662.78 393.814 665.638C406.99 669.006 415.946 672.093 421.649 669.753C425.26 667.535 426.878 665.681 427.835 659.465C429.421 648.418 430.604 641.903 425.773 637.86Z" fill="#352017"/>
<path d="M390.722 595.679C380.353 595.058 375.664 597.263 368.041 602.881C380.287 605.743 386.247 608.562 401.031 608.025C406.06 607.074 409.503 607.128 416.495 608.025C423.097 607.737 426.932 607.387 435.052 604.938C445.528 603.224 453.206 603.103 466.761 602.885L467.01 602.881C454.353 601.317 450.849 602.101 429.897 596.708C419.443 594.226 413.804 593.123 407.217 595.679C401.315 597.901 397.617 597.545 390.722 595.679Z" fill="#D99D89"/>
<path d="M390.722 595.679C380.353 595.058 375.664 597.263 368.041 602.881C380.287 605.743 386.247 608.562 401.031 608.025C406.06 607.074 409.503 607.128 416.495 608.025C423.097 607.737 426.932 607.387 435.052 604.938C445.528 603.224 453.206 603.103 466.761 602.885L467.01 602.881C454.353 601.317 450.849 602.101 429.897 596.708C419.443 594.226 413.804 593.123 407.217 595.679C401.315 597.901 397.617 597.545 390.722 595.679Z" fill="black" fill-opacity="0.2"/>
<path d="M467.01 302.469C464.328 244.934 473.722 215.265 500 164.609C557.4 174.031 598.105 176.656 615.464 198.56C653.437 245.899 656.466 303.545 661.856 406.379L648.454 414.609C561.878 335.73 529.579 327.757 467.01 302.469Z" fill="#1B1713"/>
<path d="M379.381 466.049C353.216 450.235 341.619 447.556 332.99 467.078C342.794 452.163 354.311 454.309 379.381 466.049Z" fill="#C6967D" fill-opacity="0.81"/>
<path d="M365.476 526.749C384.227 494.185 391.53 477.272 391.249 452.675C392.695 461.442 393.233 466.488 390.219 477.366C385.32 493.465 382.536 503.156 373.724 516.461C364.913 529.765 364.291 536.22 365.476 537.037C366.056 540.78 368.336 543.125 370.631 547.325C366.447 544.94 364.571 543.457 363.414 540.123C362.293 534.72 362.948 531.811 365.476 526.749Z" fill="#2A1912"/>
<path d="M480.412 456.79C481.551 456.79 482.474 456.33 482.474 455.761C482.474 455.193 481.551 454.733 480.412 454.733C479.274 454.733 478.351 455.193 478.351 455.761C478.351 456.33 479.274 456.79 480.412 456.79Z" fill="#F5DECF"/>
<path d="M357.002 462.918C358.091 462.586 358.839 461.876 358.673 461.333C358.506 460.789 357.489 460.618 356.4 460.95C355.311 461.283 354.563 461.992 354.729 462.536C354.896 463.079 355.913 463.25 357.002 462.918Z" fill="#F5DECF"/>
<path d="M480.412 456.79C481.551 456.79 482.474 456.33 482.474 455.761C482.474 455.193 481.551 454.733 480.412 454.733C479.274 454.733 478.351 455.193 478.351 455.761C478.351 456.33 479.274 456.79 480.412 456.79Z" fill="#F5DECF"/>
<path d="M523.711 839.506C418.221 832.78 399.474 804.35 398.969 733.539C473.526 780.239 525.709 775.724 650.515 673.868C657.025 701.033 666.592 706.175 639.175 791.152C616.862 820.183 609.711 838.848 523.711 839.506Z" fill="#F4C5A2"/>
<g filter="url(#filter0_d_4_81)">
<path d="M196.6 611V434.6H151.8V415H266.6V434.6H221.8V611H196.6Z" fill="white"/>
</g>
<g filter="url(#filter1_d_4_81)">
<path d="M478.4 275.8C470 275.8 462.16 275.333 454.88 274.4C447.787 273.653 440.693 272.253 433.6 270.2V79.8C440.693 77.7467 447.787 76.3467 454.88 75.6C462.16 74.6667 470 74.2 478.4 74.2C498 74.2 512.187 78.4933 520.96 87.08C529.92 95.48 534.4 108.453 534.4 126C534.4 134.4 532.72 142.24 529.36 149.52C526.187 156.8 520.4 162.773 512 167.44V168.56C523.2 171.733 531.133 177.893 535.8 187.04C540.467 196.187 542.8 207.107 542.8 219.8C542.8 239.4 538.04 253.68 528.52 262.64C519 271.413 502.293 275.8 478.4 275.8ZM458.8 257.6H478.4C492.4 257.6 502.387 254.707 508.36 248.92C514.52 242.947 517.6 233.24 517.6 219.8C517.6 205.053 514.52 194.6 508.36 188.44C502.387 182.28 492.4 179.2 478.4 179.2H458.8V257.6ZM458.8 161H475.6C486.8 161 495.2 158.2 500.8 152.6C506.4 146.813 509.2 137.947 509.2 126C509.2 114.8 506.4 106.4 500.8 100.8C495.2 95.2 486.8 92.4 475.6 92.4H458.8V161Z" fill="white"/>
</g>
<g filter="url(#filter2_d_4_81)">
<path d="M721.4 611L732.6 415H763.4L809.04 549.4H810.16L855.8 415H886.6L897.8 611H872.6L864.2 465.4H862.8L822.2 585.8H797L756.4 465.4H755L746.6 611H721.4Z" fill="white"/>
</g>
<defs>
<filter id="filter0_d_4_81" x="147.8" y="415" width="122.8" height="204" filterUnits="userSpaceOnUse" color-interpolation-filters="sRGB">
<feFlood flood-opacity="0" result="BackgroundImageFix"/>
<feColorMatrix in="SourceAlpha" type="matrix" values="0 0 0 0 0 0 0 0 0 0 0 0 0 0 0 0 0 0 127 0" result="hardAlpha"/>
<feOffset dy="4"/>
<feGaussianBlur stdDeviation="2"/>
<feComposite in2="hardAlpha" operator="out"/>
<feColorMatrix type="matrix" values="0 0 0 0 0 0 0 0 0 0 0 0 0 0 0 0 0 0 0.25 0"/>
<feBlend mode="normal" in2="BackgroundImageFix" result="effect1_dropShadow_4_81"/>
<feBlend mode="normal" in="SourceGraphic" in2="effect1_dropShadow_4_81" result="shape"/>
</filter>
<filter id="filter1_d_4_81" x="429.6" y="74.2" width="117.2" height="209.6" filterUnits="userSpaceOnUse" color-interpolation-filters="sRGB">
<feFlood flood-opacity="0" result="BackgroundImageFix"/>
<feColorMatrix in="SourceAlpha" type="matrix" values="0 0 0 0 0 0 0 0 0 0 0 0 0 0 0 0 0 0 127 0" result="hardAlpha"/>
<feOffset dy="4"/>
<feGaussianBlur stdDeviation="2"/>
<feComposite in2="hardAlpha" operator="out"/>
<feColorMatrix type="matrix" values="0 0 0 0 0 0 0 0 0 0 0 0 0 0 0 0 0 0 0.25 0"/>
<feBlend mode="normal" in2="BackgroundImageFix" result="effect1_dropShadow_4_81"/>
<feBlend mode="normal" in="SourceGraphic" in2="effect1_dropShadow_4_81" result="shape"/>
</filter>
<filter id="filter2_d_4_81" x="717.4" y="415" width="184.4" height="204" filterUnits="userSpaceOnUse" color-interpolation-filters="sRGB">
<feFlood flood-opacity="0" result="BackgroundImageFix"/>
<feColorMatrix in="SourceAlpha" type="matrix" values="0 0 0 0 0 0 0 0 0 0 0 0 0 0 0 0 0 0 127 0" result="hardAlpha"/>
<feOffset dy="4"/>
<feGaussianBlur stdDeviation="2"/>
<feComposite in2="hardAlpha" operator="out"/>
<feColorMatrix type="matrix" values="0 0 0 0 0 0 0 0 0 0 0 0 0 0 0 0 0 0 0.25 0"/>
<feBlend mode="normal" in2="BackgroundImageFix" result="effect1_dropShadow_4_81"/>
<feBlend mode="normal" in="SourceGraphic" in2="effect1_dropShadow_4_81" result="shape"/>
</filter>
<linearGradient id="paint0_linear_4_81" x1="500" y1="0" x2="500" y2="997.942" gradientUnits="userSpaceOnUse">
<stop offset="0.489583" stop-color="#6A748E"/>
</linearGradient>
</defs>
</svg>
